<svg xmlns="http://www.w3.org/2000/svg" fill="#DEDEDE" viewBox="0 0 50 50" fill-rule="evenodd"><path d="M48.99909,38.02716A10.97637,10.97637,0,0,1,38.02708,49H11.97292a10.97531,10.97531,0,0,1-10.972-10.97284V11.97284A10.97478,10.97478,0,0,1,11.97292,1H38.02708a10.97584,10.97584,0,0,1,10.972,10.97284ZM10.63647,19.90393a3.74127,3.74127,0,1,0,3.74044-3.73879A3.74156,3.74156,0,0,0,10.63647,19.90393Zm21.15609,0a3.74366,3.74366,0,1,0,3.75164-3.73879A3.74807,3.74807,0,0,0,31.79257,19.90393Zm-.24931,11.3878h0c-2.95726,2.65725-10.33673,2.71686-12.94672.10934a3.03315,3.03315,0,1,0-4.29192,4.28714c4.83384,4.82989,15.97793,4.89263,21.29112.10934a3.03006,3.03006,0,1,0-4.05249-4.50582Z"></path></svg>